<?xml version="1.0" standalone="no"?>
<!DOCTYPE svg PUBLIC "-//W3C//DTD SVG 20010904//EN"
 "http://www.w3.org/TR/2001/REC-SVG-20010904/DTD/svg10.dtd">
<svg version="1.0" xmlns="http://www.w3.org/2000/svg"
 width="400.000000pt" height="400.000000pt" viewBox="0 0 400.000000 400.000000"
 preserveAspectRatio="xMidYMid meet">
<metadata>
Created by potrace 1.14, written by Peter Selinger 2001-2017
</metadata>
<g transform="translate(0.000000,400.000000) scale(0.100000,-0.100000)"
fill="#000000" stroke="none">
<path d="M1718 3973 c-32 -36 -104 -133 -149 -203 -95 -148 -150 -267 -229
-500 -42 -126 -57 -158 -88 -190 -30 -31 -41 -36 -59 -30 -51 20 -373 411
-373 454 0 22 59 132 99 185 22 30 41 58 41 62 0 4 -9 17 -19 30 -18 22 -26
24 -118 24 -125 -1 -230 -34 -330 -104 -75 -53 -106 -89 -146 -167 -92 -182
-40 -519 117 -753 52 -78 265 -306 295 -316 12 -3 17 -18 18 -55 3 -61 33
-134 63 -150 18 -10 21 -19 18 -63 l-3 -52 -210 -8 c-115 -4 -257 -6 -315 -5
l-105 3 5 70 c10 142 6 207 -12 218 -30 20 -83 -16 -153 -105 l-65 -82 0 -305
c0 -167 2 -302 4 -300 2 2 11 54 20 114 19 127 76 369 112 470 l25 70 -6 -85
c-3 -47 -5 -203 -6 -347 l-1 -262 -26 -26 c-14 -14 -47 -33 -74 -43 l-48 -17
2 -255 3 -255 55 -17 c30 -9 83 -22 118 -29 57 -11 64 -15 77 -45 7 -18 15
-43 17 -56 2 -13 10 -39 20 -58 16 -35 15 -57 -2 -30 -8 12 -10 12 -10 2 0
-10 -10 -12 -40 -8 -128 19 -126 18 -105 27 13 6 5 7 -25 4 -31 -3 -39 -2 -25
4 14 6 5 8 -32 7 l-53 -1 0 -397 0 -398 576 0 576 0 137 97 c75 53 168 120
206 148 39 28 104 75 145 104 157 110 618 443 837 604 125 92 279 204 341 250
62 45 168 122 234 170 224 164 363 264 408 293 25 16 98 70 162 121 130 102
148 108 210 70 52 -31 82 -72 69 -94 -21 -39 -143 -146 -257 -223 -172 -117
-220 -152 -319 -229 -60 -47 -163 -127 -229 -176 -446 -339 -628 -484 -620
-497 5 -7 2 -8 -5 -4 -16 10 -51 -22 -44 -40 3 -8 0 -14 -6 -14 -6 0 -11 5
-11 11 0 8 -148 -97 -170 -121 -3 -3 -53 -43 -113 -89 -62 -47 -104 -87 -101
-93 5 -7 2 -8 -5 -4 -18 12 -56 -25 -39 -37 9 -6 7 -7 -6 -3 -13 4 -47 -17
-120 -75 -55 -45 -100 -85 -99 -90 2 -4 -3 -6 -10 -4 -6 3 -32 -13 -57 -35
l-45 -39 1178 0 1177 0 0 197 c0 184 -1 198 -19 209 -15 10 -21 10 -25 0 -3
-9 -7 -9 -14 1 -7 11 -10 11 -15 -2 -4 -11 -19 -15 -54 -14 -27 1 -53 -1 -59
-4 -5 -4 -27 -3 -47 2 -23 5 -39 4 -43 -2 -4 -6 -55 -7 -138 -3 -72 4 -147 8
-166 8 -27 2 -35 6 -34 20 1 12 -2 15 -10 9 -32 -23 -136 2 -136 33 0 8 6 12
13 9 8 -3 20 3 28 13 13 16 12 17 -3 4 -10 -7 -18 -9 -18 -3 0 14 25 33 33 25
4 -3 7 0 7 8 0 8 18 32 40 54 l39 38 225 2 c175 2 226 -1 230 -11 3 -7 1 -15
-5 -18 -5 -2 -4 -3 3 -2 7 2 12 11 12 20 -1 9 4 16 12 16 17 0 19 -37 2 -42
-7 -3 -5 -7 6 -11 10 -4 15 -3 11 3 -3 6 -1 10 5 10 6 0 13 -8 16 -18 3 -9 10
-25 15 -35 11 -20 3 -57 -12 -57 -5 0 -9 5 -9 11 0 5 -4 7 -10 4 -15 -9 -12
-25 4 -25 8 0 17 -6 19 -12 3 -8 6 -5 6 5 1 10 5 16 10 12 5 -3 13 -1 16 5 4
6 15 8 26 5 10 -4 19 -2 19 3 0 16 -31 23 -45 12 -11 -9 -12 -7 -8 9 6 24 8
24 32 12 12 -7 20 -5 28 8 10 15 6 17 -30 17 -34 -1 -42 3 -45 19 -3 11 -10
24 -18 28 -8 4 -14 17 -14 29 0 15 5 19 20 15 11 -3 27 1 34 9 8 8 26 14 40
14 l26 0 0 1110 c0 611 -4 1110 -8 1110 -4 0 -41 -17 -82 -38 -187 -94 -312
-100 -389 -18 -22 23 -25 35 -26 115 l-1 89 61 41 c95 64 222 119 338 148
l107 27 0 388 c0 338 -2 388 -15 388 -8 0 -15 -2 -15 -5 0 -3 -9 -38 -19 -78
-19 -69 -53 -272 -66 -388 l-6 -56 -57 -16 c-31 -9 -66 -19 -76 -23 -18 -7
-19 -3 -13 57 6 68 40 210 88 373 38 128 38 136 -3 136 l-33 0 -29 -103 c-77
-273 -96 -361 -97 -467 -1 -33 -5 -63 -10 -66 -13 -8 -11 -53 6 -108 19 -62
19 -63 -4 -71 -10 -3 -55 -28 -100 -54 l-81 -49 -11 42 c-34 127 -135 291
-241 392 -89 85 -238 187 -264 182 -17 -3 -19 -13 -17 -111 l3 -107 -38 19
c-20 10 -77 33 -127 51 -49 18 -125 51 -168 73 -72 38 -78 40 -94 24 -18 -18
-19 -13 36 -192 18 -55 52 -145 76 -199 25 -55 45 -105 45 -111 0 -23 -182
-97 -333 -136 l-78 -20 -32 27 c-25 21 -38 25 -65 20 -29 -4 -39 -1 -63 25
-17 19 -32 49 -38 82 -25 124 -41 361 -41 603 l0 254 -35 0 -35 0 0 -243 c0
-246 18 -503 46 -647 8 -41 14 -83 14 -92 0 -20 -97 -144 -169 -216 -29 -29
-89 -82 -134 -118 -45 -36 -101 -84 -125 -106 -23 -22 -49 -38 -56 -35 -9 4
-15 42 -19 134 -12 220 -8 347 13 480 61 377 171 688 288 816 l26 27 -45 0
c-37 0 -50 -5 -71 -27z m-909 -327 c-22 -42 -45 -78 -50 -82 -22 -13 -8 -81
31 -148 50 -85 76 -119 223 -284 117 -131 118 -132 93 -143 -20 -10 -30 -8
-58 11 -41 29 -91 82 -170 180 -33 41 -69 85 -79 98 -11 13 -24 33 -29 45 -6
12 -14 29 -19 37 -5 8 -15 29 -22 45 -8 17 -16 32 -20 35 -20 18 -29 70 -20
110 5 25 8 46 6 49 -3 2 4 10 15 18 11 8 20 19 20 24 0 20 105 94 118 84 1 -1
-16 -37 -39 -79z m-112 58 c-3 -3 -12 -4 -19 -1 -8 3 -5 6 6 6 11 1 17 -2 13
-5z m2442 -208 c71 -57 145 -150 193 -243 32 -60 32 -62 21 -128 -16 -96 -56
-170 -132 -245 -80 -79 -98 -93 -179 -142 -93 -57 -157 -83 -279 -112 -127
-30 -298 -49 -323 -36 -49 26 -121 180 -136 288 -6 50 -6 51 22 58 224 52 332
101 559 256 l130 89 7 62 c3 34 2 82 -2 107 -5 25 -11 69 -15 99 l-6 54 38
-28 c21 -16 67 -51 102 -79z m-2679 60 c0 -3 -4 -8 -10 -11 -5 -3 -10 -1 -10
4 0 6 5 11 10 11 6 0 10 -2 10 -4z m2164 -18 c29 -13 197 -236 208 -275 2 -6
-19 -27 -47 -47 l-50 -36 -13 27 c-34 63 -132 317 -132 340 0 5 8 3 34 -9z
m-2224 -128 c0 -5 -5 -10 -11 -10 -5 0 -7 5 -4 10 3 6 8 10 11 10 2 0 4 -4 4
-10z m3381 -165 c-39 -18 -41 -18 -41 -6 0 5 10 12 23 14 45 9 51 6 18 -8z
m-1564 -307 c5 -7 17 -50 26 -94 19 -97 59 -190 112 -259 l38 -49 -19 -36
c-12 -22 -26 -35 -39 -35 -52 0 -153 214 -183 389 -14 84 -14 90 3 102 19 14
43 7 62 -18z m-153 -15 c-3 -21 -17 -56 -29 -78 -31 -54 -180 -198 -285 -274
-47 -35 -102 -79 -124 -98 -30 -28 -40 -33 -47 -22 -5 8 -9 16 -9 19 0 11 92
96 207 189 76 63 148 133 203 199 46 56 86 102 88 102 1 0 0 -17 -4 -37z
m-754 -49 c0 -30 66 -228 99 -297 25 -53 26 -58 11 -72 -9 -8 -19 -15 -23 -15
-9 0 -85 204 -109 295 -19 71 -20 87 -9 111 10 22 14 25 22 13 5 -7 9 -23 9
-35z m786 -117 c-19 -78 -191 -250 -321 -321 -50 -27 -101 -58 -114 -68 -23
-18 -25 -18 -34 -2 -8 14 -5 21 14 33 13 9 44 34 69 57 25 22 74 62 110 89 93
69 200 166 235 213 31 42 52 42 41 -1z m-842 -92 c19 -55 46 -127 60 -159 31
-69 28 -84 -7 -29 -62 98 -121 244 -111 275 11 35 24 14 58 -87z m-39 -162
c26 -48 56 -97 66 -109 10 -11 19 -29 19 -41 0 -52 105 -213 139 -213 21 0
103 51 158 99 40 35 159 114 276 182 54 31 176 145 227 212 23 29 40 35 40 15
0 -25 61 -142 100 -191 22 -27 40 -53 40 -56 0 -4 -35 -15 -77 -25 -124 -30
-370 -113 -478 -163 -55 -25 -107 -48 -115 -52 -19 -8 -115 -200 -172 -343
-24 -61 -45 -102 -49 -95 -18 33 -32 168 -33 315 l-2 163 -29 18 c-17 10 -73
63 -126 117 -73 75 -105 117 -132 171 l-35 71 35 64 c55 98 53 98 78 19 12
-38 44 -109 70 -158z m1939 -80 c-36 -96 -54 -180 -69 -321 -14 -138 -29 -173
-41 -96 -14 99 15 362 49 434 7 13 23 30 37 37 48 24 51 17 24 -54z m-1640 14
c49 -85 56 -99 56 -114 0 -26 -102 -108 -124 -100 -20 8 -76 106 -76 134 0 14
17 35 48 60 26 21 49 41 50 46 8 16 28 5 46 -26z m1491 -34 c-3 -10 -13 -65
-22 -123 -8 -58 -16 -105 -17 -106 -17 -10 -297 -154 -299 -154 -2 0 2 23 9
52 8 29 14 80 14 114 0 48 4 65 20 79 14 13 20 31 20 62 l0 43 43 1 c23 0 80
11 127 23 110 30 114 30 105 9z m-345 -63 c0 -26 -4 -30 -28 -30 -37 0 -43 7
-30 36 7 15 20 24 35 24 19 0 23 -5 23 -30z m-40 -151 c0 -72 -19 -139 -39
-139 -14 0 -16 11 -13 72 4 100 9 118 32 118 17 0 20 -7 20 -51z m-20 -237 c0
-15 5 -33 10 -38 10 -10 50 -218 50 -254 -1 -27 -29 20 -36 59 -3 20 -17 82
-30 139 -14 56 -22 107 -19 112 12 19 25 10 25 -18z m-390 -47 c0 -2 -13 -11
-30 -20 -31 -16 -43 -3 -12 14 18 11 42 14 42 6z m100 -51 c0 -4 8 -52 17
-108 13 -74 17 -162 18 -331 l0 -230 -80 -57 c-81 -58 -235 -148 -253 -148
-30 0 -185 75 -199 97 -32 48 -52 173 -59 363 l-7 185 47 54 c25 30 46 58 46
63 0 4 15 8 33 8 47 0 229 43 327 78 90 31 110 36 110 26z m-1278 -60 l29 -40
-36 -162 c-37 -168 -82 -328 -110 -396 -16 -38 -16 -38 -37 -20 -11 11 -43 45
-70 76 -48 56 -49 59 -38 93 6 19 15 35 20 35 4 0 10 8 13 18 3 9 20 42 38 72
45 79 115 245 130 313 8 31 18 56 23 54 5 -2 22 -21 38 -43z m-528 -234 c37
-387 103 -646 191 -745 25 -27 35 -47 33 -65 l-3 -25 -130 0 c-71 1 -146 4
-167 8 -36 8 -36 8 -78 125 -55 153 -87 282 -106 417 -19 142 -26 381 -10 394
18 15 240 80 247 73 3 -4 14 -86 23 -182z m3166 -24 c0 -3 -4 -8 -10 -11 -5
-3 -10 -1 -10 4 0 6 5 11 10 11 6 0 10 -2 10 -4z m190 0 c0 -3 -4 -8 -10 -11
-5 -3 -10 -1 -10 4 0 6 5 11 10 11 6 0 10 -2 10 -4z m54 -62 c5 -14 4 -15 -9
-4 -17 14 -19 20 -6 20 5 0 12 -7 15 -16z m46 -44 c0 -5 -5 -10 -11 -10 -5 0
-7 5 -4 10 3 6 8 10 11 10 2 0 4 -4 4 -10z m-253 -52 c-3 -8 -6 -5 -6 6 -1 11
2 17 5 13 3 -3 4 -12 1 -19z m-187 8 c0 -3 -4 -8 -10 -11 -5 -3 -10 -1 -10 4
0 6 5 11 10 11 6 0 10 -2 10 -4z m90 -102 c0 -8 -5 -12 -10 -9 -6 4 -8 11 -5
16 9 14 15 11 15 -7z m-348 -56 c-7 -7 -12 -8 -12 -2 0 14 12 26 19 19 2 -3
-1 -11 -7 -17z m398 -5 c0 -21 -153 -313 -204 -388 -47 -71 -195 -255 -205
-255 -3 0 -26 -19 -50 -42 -42 -41 -43 -42 -37 -92 4 -28 3 -46 -1 -40 -5 6
-51 18 -103 28 -52 9 -123 26 -157 37 -34 11 -70 19 -80 17 -11 -2 -17 2 -15
10 1 8 -7 16 -18 19 -26 7 -25 19 3 34 45 24 192 156 241 217 39 48 64 69 108
89 32 14 58 30 58 34 0 5 8 9 18 9 24 0 42 19 35 36 -3 8 -1 14 5 14 6 0 12
-6 15 -12 3 -10 7 -10 18 -2 8 6 57 42 109 81 52 39 109 83 125 99 17 16 39
34 50 40 11 5 19 18 19 27 -1 11 5 16 20 14 16 -2 22 4 24 26 3 28 22 28 22 0z
m-90 13 c0 -3 -4 -8 -10 -11 -5 -3 -10 -1 -10 4 0 6 5 11 10 11 6 0 10 -2 10
-4z m-355 -46 c3 -5 1 -10 -4 -10 -6 0 -11 5 -11 10 0 6 2 10 4 10 3 0 8 -4
11 -10z m252 -56 c-3 -3 -12 -4 -19 -1 -8 3 -5 6 6 6 11 1 17 -2 13 -5z m-147
-44 c0 -5 -5 -10 -11 -10 -5 0 -7 5 -4 10 3 6 8 10 11 10 2 0 4 -4 4 -10z
m100 0 c0 -5 -4 -10 -10 -10 -5 0 -10 5 -10 10 0 6 5 10 10 10 6 0 10 -4 10
-10z m-155 -50 c3 -5 1 -10 -4 -10 -6 0 -11 5 -11 10 0 6 2 10 4 10 3 0 8 -4
11 -10z m100 1 c3 -5 1 -12 -5 -16 -5 -3 -10 1 -10 9 0 18 6 21 15 7z m-345
-51 c0 -5 -5 -10 -11 -10 -5 0 -7 5 -4 10 3 6 8 10 11 10 2 0 4 -4 4 -10z
m200 6 c0 -3 -4 -8 -10 -11 -5 -3 -10 -1 -10 4 0 6 5 11 10 11 6 0 10 -2 10
-4z m100 -6 c0 -5 -4 -10 -10 -10 -5 0 -10 5 -10 10 0 6 5 10 10 10 6 0 10 -4
10 -10z m-345 -50 c-3 -5 -11 -10 -16 -10 -6 0 -7 5 -4 10 3 6 11 10 16 10 6
0 7 -4 4 -10z m194 -11 c-16 -10 -23 -4 -14 10 3 6 11 8 17 5 6 -4 5 -9 -3
-15z m-258 -42 c-10 -9 -11 -8 -5 6 3 10 9 15 12 12 3 -3 0 -11 -7 -18z m-86
3 c3 -5 -1 -10 -10 -10 -9 0 -13 5 -10 10 3 6 8 10 10 10 2 0 7 -4 10 -10z
m-50 -50 c3 -5 2 -10 -4 -10 -5 0 -13 5 -16 10 -3 6 -2 10 4 10 5 0 13 -4 16
-10z m-1899 -76 c38 -20 81 -36 96 -35 15 1 29 -3 33 -9 3 -5 16 -10 28 -10
12 0 58 -14 102 -31 83 -33 194 -55 330 -65 44 -4 84 -10 89 -15 5 -4 16 -4
25 0 9 5 75 11 146 14 72 3 139 9 150 13 19 6 19 6 4 -10 -11 -12 -34 -18 -73
-19 -31 -1 -56 -5 -56 -9 0 -5 -12 -8 -26 -8 -14 0 -23 4 -19 10 3 6 1 10 -4
10 -6 0 -11 -5 -11 -11 0 -19 -308 -4 -415 20 -101 23 -292 84 -345 111 -83
42 -106 55 -118 67 -20 19 -13 17 64 -23z m1848 21 c-4 -8 -8 -15 -10 -15 -2
0 -4 7 -4 15 0 8 4 15 10 15 5 0 7 -7 4 -15z m-49 -45 c3 -5 1 -10 -4 -10 -6
0 -11 5 -11 10 0 6 2 10 4 10 3 0 8 -4 11 -10z m-50 -50 c3 -5 2 -10 -4 -10
-5 0 -13 5 -16 10 -3 6 -2 10 4 10 5 0 13 -4 16 -10z m-45 -50 c0 -5 -4 -10
-10 -10 -5 0 -10 5 -10 10 0 6 5 10 10 10 6 0 10 -4 10 -10z m-50 -44 c0 -3
-4 -8 -10 -11 -5 -3 -10 -1 -10 4 0 6 5 11 10 11 6 0 10 -2 10 -4z m-206 -94
c3 -5 -1 -9 -9 -9 -8 0 -12 4 -9 9 3 4 7 8 9 8 2 0 6 -4 9 -8z m-49 -52 c3 -5
1 -10 -4 -10 -6 0 -11 5 -11 10 0 6 2 10 4 10 3 0 8 -4 11 -10z m586 -13 c-10
-9 -11 -8 -5 6 3 10 9 15 12 12 3 -3 0 -11 -7 -18z m154 -37 c3 -5 1 -10 -4
-10 -6 0 -11 5 -11 10 0 6 2 10 4 10 3 0 8 -4 11 -10z m105 -6 c0 -8 -4 -12
-10 -9 -5 3 -10 10 -10 16 0 5 5 9 10 9 6 0 10 -7 10 -16z m-883 0 c-3 -3 -12
-4 -19 -1 -8 3 -5 6 6 6 11 1 17 -2 13 -5z m690 0 c-3 -3 -12 -4 -19 -1 -8 3
-5 6 6 6 11 1 17 -2 13 -5z m47 -55 c-3 -5 -10 -7 -15 -3 -5 3 -7 10 -3 15 3
5 10 7 15 3 5 -3 7 -10 3 -15z m92 -6 c-10 -10 -19 5 -10 18 6 11 8 11 12 0 2
-7 1 -15 -2 -18z m104 12 c0 -8 -4 -15 -10 -15 -5 0 -10 7 -10 15 0 8 5 15 10
15 6 0 10 -7 10 -15z m-242 -46 c-2 -6 -8 -10 -13 -10 -5 0 -11 4 -13 10 -2 6
4 11 13 11 9 0 15 -5 13 -11z m92 1 c0 -5 -4 -10 -10 -10 -5 0 -10 5 -10 10 0
6 5 10 10 10 6 0 10 -4 10 -10z m100 -6 c0 -8 -4 -12 -10 -9 -5 3 -10 10 -10
16 0 5 5 9 10 9 6 0 10 -7 10 -16z m100 1 c0 -8 -4 -15 -10 -15 -5 0 -10 7
-10 15 0 8 5 15 10 15 6 0 10 -7 10 -15z m-1136 -51 c3 -8 2 -12 -4 -9 -6 3
-10 10 -10 16 0 14 7 11 14 -7z m891 6 c3 -5 -1 -10 -10 -10 -9 0 -13 5 -10
10 3 6 8 10 10 10 2 0 7 -4 10 -10z m195 0 c0 -5 -5 -10 -11 -10 -5 0 -7 5 -4
10 3 6 8 10 11 10 2 0 4 -4 4 -10z m-1240 -50 c0 -5 -5 -10 -11 -10 -5 0 -7 5
-4 10 3 6 8 10 11 10 2 0 4 -4 4 -10z m105 1 c3 -5 1 -12 -5 -16 -5 -3 -10 1
-10 9 0 18 6 21 15 7z m990 -1 c3 -5 -1 -10 -9 -10 -9 0 -16 5 -16 10 0 6 4
10 9 10 6 0 13 -4 16 -10z m95 0 c0 -5 -4 -10 -10 -10 -5 0 -10 5 -10 10 0 6
5 10 10 10 6 0 10 -4 10 -10z m100 1 c0 -6 -4 -13 -10 -16 -5 -3 -10 1 -10 9
0 9 5 16 10 16 6 0 10 -4 10 -9z m-150 -51 c0 -5 -4 -10 -10 -10 -5 0 -10 5
-10 10 0 6 5 10 10 10 6 0 10 -4 10 -10z m100 0 c0 -5 -4 -10 -10 -10 -5 0
-10 5 -10 10 0 6 5 10 10 10 6 0 10 -4 10 -10z m100 0 c0 -5 -4 -10 -10 -10
-5 0 -10 5 -10 10 0 6 5 10 10 10 6 0 10 -4 10 -10z m-245 -49 c3 -5 1 -12 -4
-15 -5 -3 -11 1 -15 9 -6 16 9 21 19 6z m95 -1 c0 -5 -4 -10 -10 -10 -5 0 -10
5 -10 10 0 6 5 10 10 10 6 0 10 -4 10 -10z m100 -6 c0 -8 -4 -12 -10 -9 -5 3
-10 10 -10 16 0 5 5 9 10 9 6 0 10 -7 10 -16z m100 7 c0 -6 -4 -13 -10 -16 -5
-3 -10 1 -10 9 0 9 5 16 10 16 6 0 10 -4 10 -9z m-250 -51 c0 -5 -4 -10 -10
-10 -5 0 -10 5 -10 10 0 6 5 10 10 10 6 0 10 -4 10 -10z m100 0 c0 -5 -4 -10
-10 -10 -5 0 -10 5 -10 10 0 6 5 10 10 10 6 0 10 -4 10 -10z m100 0 c0 -5 -4
-10 -10 -10 -5 0 -10 5 -10 10 0 6 5 10 10 10 6 0 10 -4 10 -10z m100 -11 c0
-6 -4 -7 -10 -4 -5 3 -10 11 -10 16 0 6 5 7 10 4 6 -3 10 -11 10 -16z"/>
<path d="M1070 680 c34 -11 60 -11 35 0 -11 5 -29 8 -40 8 -16 0 -15 -2 5 -8z"/>
<path d="M1190 640 c8 -5 20 -10 25 -10 6 0 3 5 -5 10 -8 5 -19 10 -25 10 -5
0 -3 -5 5 -10z"/>
<path d="M1258 623 c7 -3 16 -2 19 1 4 3 -2 6 -13 5 -11 0 -14 -3 -6 -6z"/>
<path d="M1340 611 c8 -6 28 -11 44 -11 39 0 31 6 -19 14 -29 5 -36 4 -25 -3z"/>
<path d="M1768 603 c7 -3 16 -2 19 1 4 3 -2 6 -13 5 -11 0 -14 -3 -6 -6z"/>
<path d="M225 901 c19 -8 19 -9 -3 -14 -18 -4 -18 -4 -2 -3 26 1 28 20 3 23
-15 2 -15 1 2 -6z"/>
<path d="M241 854 c0 -11 3 -14 6 -6 3 7 2 16 -1 19 -3 4 -6 -2 -5 -13z"/>
<path d="M228 793 c7 -3 16 -2 19 1 4 3 -2 6 -13 5 -11 0 -14 -3 -6 -6z"/>
<path d="M3975 620 c-3 -5 -2 -10 4 -10 5 0 13 5 16 10 3 6 2 10 -4 10 -5 0
-13 -4 -16 -10z"/>
<path d="M3946 595 c4 -8 2 -15 -4 -15 -5 0 -12 -10 -15 -22 l-6 -23 18 22 18
22 11 -22 11 -22 0 23 c1 12 -3 22 -9 22 -5 0 -10 7 -10 15 0 8 -4 15 -10 15
-5 0 -7 -7 -4 -15z"/>
<path d="M3366 575 c-17 -13 -18 -15 -3 -15 22 0 22 -19 0 -37 -12 -9 -6 -8
16 3 29 14 32 18 18 25 -9 5 -14 16 -11 24 7 18 4 18 -20 0z"/>
<path d="M3470 580 c0 -5 5 -10 11 -10 5 0 7 5 4 10 -3 6 -8 10 -11 10 -2 0
-4 -4 -4 -10z"/>
<path d="M3630 583 c0 -5 16 -8 35 -9 22 0 31 3 23 8 -16 10 -58 10 -58 1z"/>
<path d="M3745 579 c-16 -3 -24 -7 -16 -8 12 -1 11 -4 -3 -14 -15 -11 -16 -17
-5 -40 7 -15 19 -27 26 -27 8 0 11 -5 7 -12 -4 -6 -3 -8 3 -5 6 4 14 0 17 -9
3 -8 11 -12 17 -9 12 8 -17 45 -36 45 -17 0 -27 41 -13 57 5 7 13 11 17 9 4
-3 13 -1 20 3 20 13 0 18 -34 10z"/>
<path d="M3440 572 c0 -6 -10 -8 -22 -5 -23 5 -23 5 -3 -10 l20 -16 -20 -15
c-17 -13 -17 -15 -4 -16 10 0 20 -12 24 -27 5 -21 8 -24 16 -12 11 18 12 32 1
25 -12 -7 -11 58 1 65 5 4 5 9 -2 13 -6 4 -11 3 -11 -2z"/>
<path d="M3520 559 c0 -5 -4 -7 -10 -4 -5 3 -10 1 -10 -4 0 -6 5 -11 11 -11 6
0 9 -7 6 -14 -4 -10 -1 -13 8 -9 8 3 12 9 9 14 -3 6 0 16 6 24 10 12 9 15 -4
15 -9 0 -16 -5 -16 -11z"/>
<path d="M3570 560 c0 -5 5 -10 11 -10 5 0 7 5 4 10 -3 6 -8 10 -11 10 -2 0
-4 -4 -4 -10z"/>
<path d="M3600 562 c0 -5 7 -15 15 -22 8 -7 15 -8 15 -2 0 5 -7 15 -15 22 -8
7 -15 8 -15 2z"/>
<path d="M3660 560 c8 -5 20 -10 25 -10 6 0 3 5 -5 10 -8 5 -19 10 -25 10 -5
0 -3 -5 5 -10z"/>
<path d="M3816 552 c-7 -12 3 -42 13 -42 9 0 8 37 -1 45 -3 4 -9 2 -12 -3z"/>
<path d="M3322 528 c-7 -9 -6 -17 3 -25 10 -9 13 -7 11 13 -1 28 -1 28 -14 12z"/>
<path d="M3470 520 c0 -5 5 -10 10 -10 6 0 10 5 10 10 0 6 -4 10 -10 10 -5 0
-10 -4 -10 -10z"/>
<path d="M3565 519 c-6 -9 -2 -11 12 -7 11 3 28 1 37 -4 10 -6 23 -5 34 1 15
9 15 10 1 11 -9 0 -30 3 -47 6 -19 4 -32 1 -37 -7z"/>
<path d="M3675 505 c2 -22 -1 -25 -19 -19 -21 6 -21 6 -1 -9 24 -19 38 -12 30
14 -4 11 -2 19 5 19 6 0 8 5 5 10 -12 19 -23 10 -20 -15z"/>
<path d="M3775 520 c-3 -5 -1 -10 4 -10 6 0 11 5 11 10 0 6 -2 10 -4 10 -3 0
-8 -4 -11 -10z"/>
<path d="M3850 493 c0 -26 1 -26 15 -7 19 25 19 34 0 34 -10 0 -15 -10 -15
-27z"/>
<path d="M3370 500 c0 -5 5 -10 10 -10 6 0 10 5 10 10 0 6 -4 10 -10 10 -5 0
-10 -4 -10 -10z"/>
<path d="M3351 483 c-1 -6 -9 -13 -18 -15 -11 -2 -14 -6 -8 -10 16 -10 38 7
32 23 -3 9 -6 9 -6 2z"/>
<path d="M3520 478 c-45 -13 -46 -14 -25 -38 20 -22 35 -18 35 11 0 23 35 26
44 3 10 -25 7 -34 -9 -34 -8 0 -15 -5 -15 -11 0 -15 21 -6 34 13 7 12 6 24 -4
42 -7 14 -16 26 -19 25 -3 0 -22 -5 -41 -11z"/>
<path d="M3375 470 c3 -5 8 -10 11 -10 2 0 4 5 4 10 0 6 -5 10 -11 10 -5 0 -7
-4 -4 -10z"/>
<path d="M3597 464 c7 -20 29 -23 29 -5 0 9 -8 17 -17 17 -9 0 -15 -6 -12 -12z"/>
<path d="M3701 445 c-21 -23 -21 -25 -5 -25 11 0 30 -3 44 -6 l25 -5 -24 14
c-15 9 -20 17 -12 21 12 8 15 26 4 26 -5 0 -19 -12 -32 -25z"/>
<path d="M3810 459 c0 -5 5 -7 10 -4 6 3 10 8 10 11 0 2 -4 4 -10 4 -5 0 -10
-5 -10 -11z"/>
<path d="M3290 440 c0 -5 7 -10 16 -10 8 0 12 5 9 10 -3 6 -10 10 -16 10 -5 0
-9 -4 -9 -10z"/>
<path d="M3427 444 c-12 -13 -8 -20 19 -33 26 -12 44 -8 44 10 0 6 -9 8 -19 4
-12 -4 -23 0 -28 10 -5 8 -12 12 -16 9z"/>
<path d="M3985 441 c-3 -5 -1 -12 5 -16 5 -3 10 1 10 9 0 18 -6 21 -15 7z"/>
<path d="M3626 414 c-5 -12 -2 -15 10 -10 8 3 18 6 20 6 3 0 2 5 -1 10 -9 15
-22 12 -29 -6z"/>
<path d="M3770 419 c0 -5 5 -7 10 -4 6 3 10 8 10 11 0 2 -4 4 -10 4 -5 0 -10
-5 -10 -11z"/>
<path d="M3816 420 c14 -14 76 -20 72 -8 -2 6 -21 12 -43 14 -24 2 -35 0 -29
-6z"/>
</g>
</svg>
